<svg width="23" height="22" viewBox="0 0 23 22" xmlns="http://www.w3.org/2000/svg"><title>light</title><path d="M8.285 3.816c.613-.325.63-1.019-.043-2.285C7.57.264 6.503-.215 5.934.088c-.57.303-.418 1.268.255 2.534.674 1.267 1.484 1.52 2.096 1.194zm7.7 17.891c.613-.325.63-1.019-.043-2.285-.673-1.267-1.739-1.746-2.308-1.443-.57.303-.418 1.268.255 2.534.674 1.267 1.484 1.52 2.096 1.194zm-9.791 0c-.613-.325-.63-1.019.043-2.285.673-1.267 1.739-1.746 2.308-1.443.57.303.418 1.268-.255 2.534-.674 1.267-1.484 1.52-2.096 1.194zm7.502-17.89c-.612-.326-.63-1.02.043-2.286.674-1.267 1.74-1.746 2.309-1.443.57.303.418 1.268-.256 2.534-.673 1.267-1.483 1.52-2.096 1.194zM4.204 7.968c.282-.633-.13-1.191-1.441-1.775C1.453 5.611.318 5.89.055 6.48c-.262.589.452 1.256 1.762 1.84 1.31.583 2.105.284 2.387-.35zm13.771 0c-.282-.633.13-1.191 1.441-1.775 1.31-.583 2.445-.305 2.708.285.262.589-.452 1.256-1.762 1.84-1.31.583-2.105.284-2.387-.35zm4.12 7.677c.282-.634-.13-1.191-1.441-1.775-1.31-.583-2.445-.305-2.708.284-.262.59.452 1.257 1.762 1.84 1.31.584 2.105.285 2.387-.349zm-22.01 0c-.283-.634.13-1.191 1.44-1.775 1.31-.583 2.445-.305 2.708.284.262.59-.452 1.257-1.762 1.84-1.31.584-2.105.285-2.387-.349zm11.043 1.179a5.771 5.771 0 1 0 0-11.543 5.771 5.771 0 0 0 0 11.543z" fill="#929292" fill-rule="evenodd"/></svg>