<svg width="21" height="21" viewBox="0 0 21 21" xmlns="http://www.w3.org/2000/svg"><title>contacts</title><path d="M0 10.5C0 16.299 4.701 21 10.5 21 16.3 21 21 16.299 21 10.5S16.3 0 10.5 0C4.701 0 0 4.701 0 10.5zm4.468 7.47c.578-.338 2.948-.798 3.503-1.148.614-.386.416-2.501.416-2.501l-.136-.151a2.416 2.416 0 0 1-.415-.705l-.276-.811-.63-1.734s-.42-.73-.42-1.26.21-.84.21-.84-.21-1.495-.21-2.52c0-1.89 2.52-3.15 3.99-3.15 1.47 0 3.99 1.26 3.99 3.15 0 1.025-.21 2.52-.21 2.52s.21.31.21.84-.42 1.26-.42 1.26l-.63 1.734-.282.811a2.45 2.45 0 0 1-.42.705l-.138.151s.019 2.115.633 2.501c.548.345 2.864.798 3.479 1.134 0 .04-2.645 2.204-6.212 2.204-3.568 0-5.995-2.155-6.032-2.19z" fill="#929292" fill-rule="evenodd"/></svg>