<svg width="102" height="34" viewBox="0 0 102 34" xmlns="http://www.w3.org/2000/svg" xmlns:xlink="http://www.w3.org/1999/xlink"><title>Logo</title><defs><path id="a" d="M.515 4.485h4.338V.203H.515z"/><path id="c" d="M0 .038v4.279h4.337V.037H0z"/><path id="e" d="M4.59.144H.254v4.274h4.338V.144z"/></defs><g fill="none" fill-rule="evenodd"><path d="M27.755 27.775a2.281 2.281 0 0 1-.833-.162 3.02 3.02 0 0 1-.373-.197 2.602 2.602 0 0 1-.33-.274 2.13 2.13 0 0 1-.632-1.506 2.228 2.228 0 0 1 .165-.822c.051-.128.121-.248.199-.368a1.95 1.95 0 0 1 .269-.325 2.219 2.219 0 0 1 1.11-.583 2.19 2.19 0 0 1 1.96.583 2.233 2.233 0 0 1 .47.693 2.27 2.27 0 0 1 .165.822 2.13 2.13 0 0 1-.635 1.506 2.191 2.191 0 0 1-1.535.633" fill="#00E2B7"/><g transform="translate(18.182 28.562)"><mask id="b" fill="#fff"><use xlink:href="#a"/></mask><path d="M.579 2.868A2.15 2.15 0 0 1 2.157.266C3.31-.016 4.49.677 4.785 1.823c.296 1.138-.407 2.302-1.57 2.594-.174.042-.355.069-.529.069-.97 0-1.855-.651-2.107-1.618" fill="#00E2B7" mask="url(#b)"/></g><path d="M11.336 32.646a2.135 2.135 0 0 1-1.362-2.713c.382-1.122 1.614-1.721 2.75-1.344a2.133 2.133 0 0 1 1.361 2.713 2.18 2.18 0 0 1-2.749 1.344M3.175 26.714a2.126 2.126 0 0 1 .476-2.986 2.202 2.202 0 0 1 3.036.47 2.13 2.13 0 0 1-.485 2.995 2.187 2.187 0 0 1-1.276.402 2.154 2.154 0 0 1-1.751-.88" fill="#00E2B7"/><g transform="translate(0 15.02)"><mask id="d" fill="#fff"><use xlink:href="#c"/></mask><path d="M0 2.203C-.01 1.023.954.055 2.15.038 3.349.03 4.329.98 4.338 2.161a2.146 2.146 0 0 1-2.143 2.156h-.026C.98 4.317.018 3.377 0 2.203" fill="#00E2B7" mask="url(#d)"/></g><path d="M3.521 10.65a2.123 2.123 0 0 1-.537-2.978 2.182 2.182 0 0 1 3.018-.54 2.134 2.134 0 0 1 .547 2.987 2.207 2.207 0 0 1-1.788.916 2.23 2.23 0 0 1-1.24-.385M9.723 4.326a2.13 2.13 0 0 1 1.3-2.74A2.177 2.177 0 0 1 13.8 2.88a2.124 2.124 0 0 1-1.3 2.73 2.047 2.047 0 0 1-.738.128c-.894 0-1.726-.538-2.038-1.411" fill="#00E2B7"/><g transform="translate(18.182 .754)"><mask id="f" fill="#fff"><use xlink:href="#e"/></mask><path d="M2.053 4.394A2.146 2.146 0 0 1 .284 1.919C.484.756 1.602-.024 2.791.174A2.147 2.147 0 0 1 4.56 2.648a2.156 2.156 0 0 1-2.134 1.77c-.12 0-.243-.007-.373-.024" fill="#00E2B7" mask="url(#f)"/></g><path d="M27.772 10.025a2.36 2.36 0 0 1-.425-.043 1.922 1.922 0 0 1-.407-.127 3.02 3.02 0 0 1-.373-.19 3.343 3.343 0 0 1-.33-.273 2.043 2.043 0 0 1-.27-.326 1.917 1.917 0 0 1-.198-.368 2.284 2.284 0 0 1-.122-.393 2.417 2.417 0 0 1-.043-.42c0-.564.234-1.12.633-1.514a2.176 2.176 0 0 1 .703-.462c.138-.06.269-.095.407-.129a2.225 2.225 0 0 1 1.96.59c.4.394.634.95.634 1.515a2.203 2.203 0 0 1-.165.814 1.92 1.92 0 0 1-.2.367c-.078.12-.174.232-.269.326a2.533 2.533 0 0 1-.33.273c-.12.07-.242.138-.372.19-.13.059-.269.101-.408.127a2.35 2.35 0 0 1-.425.043" fill="#00E2B7"/><path d="M22.537 15.079c-.573 0-1.128-.23-1.535-.624a2.295 2.295 0 0 1-.269-.327 2.234 2.234 0 0 1-.32-.77 1.77 1.77 0 0 1-.044-.419c0-.145.009-.282.043-.42.026-.137.07-.272.121-.401.053-.129.122-.249.2-.368.078-.121.165-.231.27-.325.806-.796 2.254-.796 3.06 0 .105.094.191.204.278.325.078.12.138.24.2.368a2.2 2.2 0 0 1 .165.822c-.001.137-.018.273-.045.418-.025.138-.069.266-.12.394-.062.128-.122.258-.2.376-.087.112-.173.223-.278.327-.399.393-.963.624-1.526.624M15.985 27.176c-1.188-.077-2.1-1.095-2.021-2.267a2.164 2.164 0 0 1 2.307-2.003 2.147 2.147 0 0 1 2.021 2.276 2.165 2.165 0 0 1-2.159 2.004c-.053 0-.096 0-.148-.01M7.563 21.776a2.124 2.124 0 0 1 .91-2.893 2.18 2.18 0 0 1 2.924.899c.563 1.043.156 2.336-.911 2.893-.321.163-.668.24-1.007.24-.78 0-1.525-.411-1.916-1.139M8.587 14.792a2.127 2.127 0 0 1-.746-2.935 2.181 2.181 0 0 1 2.975-.737 2.12 2.12 0 0 1 .746 2.936 2.165 2.165 0 0 1-1.856 1.035c-.382 0-.763-.093-1.12-.299" fill="#00B794"/><text font-family="AvenirNext-DemiBold, Avenir Next" font-size="12" font-weight="500" fill="#FFF"><tspan x="43" y="21.775">Commit.to</tspan></text><path d="M14.415 9.083c-.009-1.18.954-2.148 2.151-2.165v.009c1.197-.009 2.177.934 2.187 2.114.008 1.182-.955 2.149-2.152 2.156H16.583c-1.188 0-2.16-.94-2.168-2.114M22.537 23.85a2.361 2.361 0 0 1-.833-.164c-.13-.06-.25-.119-.373-.196a3.145 3.145 0 0 1-.329-.266 3.226 3.226 0 0 1-.269-.325 2.197 2.197 0 0 1-.2-.368 2.236 2.236 0 0 1-.165-.822c0-.565.235-1.121.634-1.515.104-.093.217-.187.33-.264.121-.078.242-.146.372-.198.13-.05.27-.093.407-.12.278-.06.573-.06.851 0 .138.027.277.07.407.12.13.052.252.12.374.198.112.077.225.17.33.264.398.394.632.95.632 1.515 0 .138-.017.284-.043.42-.026.136-.07.266-.122.402a2.192 2.192 0 0 1-.199.368 3.226 3.226 0 0 1-.269.325 2.23 2.23 0 0 1-1.535.626" fill="#00B794"/></g></svg>