<svg width="16" height="14" viewBox="0 0 16 14" xmlns="http://www.w3.org/2000/svg"><title>Tt</title><path d="M5.93 13H4.148V1.822H.062V.256h9.954v1.566H5.93V13zm9.864-7.146h-2.268V10.3c0 .516.096.885.288 1.107.192.222.498.333.918.333.156 0 .324-.018.504-.054.18-.036.342-.09.486-.162l.054 1.386a4.105 4.105 0 0 1-.675.171 4.54 4.54 0 0 1-.765.063c-.804 0-1.419-.222-1.845-.666-.426-.444-.639-1.11-.639-1.998V5.854h-1.638V4.468h1.638V2.02h1.674v2.448h2.268v1.386z" fill="#929292" fill-rule="evenodd"/></svg>