<?xml version="1.0" encoding="UTF-8"?>
<svg width="21px" height="21px" viewBox="0 0 21 21" version="1.1" xmlns="http://www.w3.org/2000/svg" xmlns:xlink="http://www.w3.org/1999/xlink">
    <!-- Generator: Sketch 46.2 (44496) - http://www.bohemiancoding.com/sketch -->
    <title>contacts</title>
    <desc>Created with Sketch.</desc>
    <defs></defs>
    <g id="Desktop" stroke="none" stroke-width="1" fill="none" fill-rule="evenodd">
        <g id="Edit-commitment" transform="translate(-501.000000, -261.000000)" fill="#929292">
            <g id="Commitment-01" transform="translate(468.000000, 128.000000)">
                <path d="M33,143.5 C33,149.299011 37.7010818,154 43.5002083,154 C49.2993348,154 54,149.299011 54,143.5 C54,137.700989 49.2993348,133 43.5002083,133 C37.7010818,133 33,137.700989 33,143.5 L33,143.5 L33,143.5 Z M37.4684665,150.96939 C38.046253,150.632146 40.4157619,150.17151 40.9706201,149.822177 C41.5846748,149.435743 41.3874937,147.320986 41.3874937,147.320986 L41.2509941,147.170042 C41.0961481,146.998811 40.9100322,146.681981 40.8361681,146.464955 L40.56,145.653525 L39.93,143.92 C39.93,143.92 39.51,143.190253 39.51,142.66 C39.51,142.129748 39.72,141.82 39.72,141.82 C39.72,141.82 39.51,140.325488 39.51,139.3 C39.51,137.41 42.03,136.15 43.5,136.15 C44.97,136.15 47.49,137.41 47.49,139.3 C47.49,140.325071 47.28,141.82 47.28,141.82 C47.28,141.82 47.49,142.129748 47.49,142.66 C47.49,143.190253 47.07,143.92 47.07,143.92 L46.44,145.653525 L46.1575235,146.464955 C46.0815716,146.683132 45.8917039,147.000816 45.7375235,147.170042 L45.6,147.320986 C45.6,147.320986 45.6187593,149.435743 46.2332306,149.822177 C46.7805856,150.166925 49.0971514,150.620474 49.7120398,150.956051 C49.7124565,150.996903 47.0667694,153.16 43.5,153.16 C39.9323969,153.16 37.5047344,151.005241 37.4684665,150.96939 L37.4684665,150.96939 L37.4684665,150.96939 Z" id="contacts"></path>
            </g>
        </g>
    </g>
</svg>