<?xml version="1.0" encoding="UTF-8"?>
<svg width="23px" height="22px" viewBox="0 0 23 22" version="1.1" xmlns="http://www.w3.org/2000/svg" xmlns:xlink="http://www.w3.org/1999/xlink">
    <!-- Generator: Sketch 46.2 (44496) - http://www.bohemiancoding.com/sketch -->
    <title>light</title>
    <desc>Created with Sketch.</desc>
    <defs></defs>
    <g id="Desktop" stroke="none" stroke-width="1" fill="none" fill-rule="evenodd">
        <g id="Edit-commitment" transform="translate(-500.000000, -201.000000)" fill="#929292">
            <g id="Commitment-01" transform="translate(468.000000, 128.000000)">
                <path d="M40.2852331,76.8164743 C40.8975745,76.4908867 40.9158059,75.7971571 40.2424328,74.5307265 C39.5690597,73.264296 38.5034675,72.7850807 37.9339275,73.0879108 C37.3643869,73.3907408 37.5158606,74.3560013 38.1892332,75.6224319 C38.8626063,76.8888625 39.6728922,77.1420619 40.2852331,76.8164743 L40.2852331,76.8164743 Z M47.9852094,94.7073906 C48.5975508,94.381803 48.6157822,93.6880735 47.9424091,92.421643 C47.269036,91.1552126 46.2034438,90.6759969 45.6339038,90.9788272 C45.0643632,91.2816575 45.2158369,92.246918 45.8892094,93.5133485 C46.5625826,94.7797789 47.3728685,95.0329781 47.9852094,94.7073906 L47.9852094,94.7073906 Z M38.1938086,94.7073906 C37.5814672,94.381803 37.5632358,93.6880735 38.2366089,92.421643 C38.909982,91.1552126 39.9755742,90.6759969 40.5451142,90.9788272 C41.1146548,91.2816575 40.9631811,92.246918 40.2898085,93.5133485 C39.6164354,94.7797789 38.8061495,95.0329781 38.1938086,94.7073906 L38.1938086,94.7073906 Z M45.696451,76.8164743 C45.0841096,76.4908867 45.0658781,75.7971571 45.7392512,74.5307265 C46.4126244,73.264296 47.4782166,72.7850807 48.0477566,73.0879108 C48.6172972,73.3907408 48.4658234,74.3560013 47.7924509,75.6224319 C47.1190778,76.8888625 46.3087918,77.1420619 45.696451,76.8164743 L45.696451,76.8164743 Z M36.2038378,80.969119 C36.4859175,80.3355577 36.0731816,79.7776671 34.7628635,79.194276 C33.4525461,78.6108849 32.3178141,78.889302 32.0554508,79.4785794 C31.7930874,80.0678569 32.5067237,80.7352361 33.8170418,81.3186272 C35.1273592,81.9020182 35.921758,81.6026805 36.2038378,80.969119 L36.2038378,80.969119 Z M49.9751802,80.969119 C49.6931005,80.3355577 50.1058364,79.7776671 51.4161545,79.194276 C52.7264719,78.6108849 53.8612038,78.889302 54.1235672,79.4785794 C54.3859306,80.0678569 53.6722942,80.7352361 52.3619762,81.3186272 C51.0516588,81.9020182 50.25726,81.6026805 49.9751802,80.969119 L49.9751802,80.969119 Z M54.0947542,88.6460195 C54.3768339,88.0124581 53.964098,87.4545675 52.65378,86.8711764 C51.3434625,86.2877854 50.2087306,86.5662024 49.9463672,87.1554799 C49.6840038,87.7447573 50.3976402,88.4121366 51.7079582,88.9955276 C53.0182756,89.5789187 53.8126745,89.2795809 54.0947542,88.6460195 L54.0947542,88.6460195 Z M32.0842638,88.6460195 C31.8021841,88.0124581 32.21492,87.4545675 33.525238,86.8711764 C34.8355555,86.2877854 35.9702874,86.5662024 36.2326508,87.1554799 C36.4950142,87.7447573 35.7813778,88.4121366 34.4710598,88.9955276 C33.1607424,89.5789187 32.3663435,89.2795809 32.0842638,88.6460195 L32.0842638,88.6460195 Z M43.1280645,89.8245745 C46.3154449,89.8245745 48.8993279,87.2406919 48.8993279,84.0533112 C48.8993279,80.8659304 46.3154449,78.2820478 43.1280645,78.2820478 C39.9406835,78.2820478 37.3568011,80.8659304 37.3568011,84.0533112 C37.3568011,87.2406919 39.9406835,89.8245745 43.1280645,89.8245745 L43.1280645,89.8245745 Z" id="light"></path>
            </g>
        </g>
    </g>
</svg>