<?xml version="1.0" encoding="UTF-8"?>
<svg width="102px" height="34px" viewBox="0 0 102 34" version="1.1" xmlns="http://www.w3.org/2000/svg" xmlns:xlink="http://www.w3.org/1999/xlink">
    <!-- Generator: Sketch 46.2 (44496) - http://www.bohemiancoding.com/sketch -->
    <title>Logo</title>
    <desc>Created with Sketch.</desc>
    <defs>
        <polygon id="path-1" points="0.514836512 4.48519949 4.85253835 4.48519949 4.85253835 0.20310792 0.514836512 0.20310792"></polygon>
        <polygon id="path-3" points="6.16023962e-21 0.0379484053 6.16023962e-21 4.31687979 4.33723407 4.31687979 4.33723407 0.0379484053 0 0.0379484053"></polygon>
        <polygon id="path-5" points="4.59067997 0.143526384 0.253293434 0.143526384 0.253293434 4.41774208 4.59067997 4.41774208 4.59067997 0.143526384"></polygon>
    </defs>
    <g id="Desktop" stroke="none" stroke-width="1" fill="none" fill-rule="evenodd">
        <g id="Edit-commitment" transform="translate(-47.000000, -957.000000)">
            <g id="Logo" transform="translate(47.000000, 957.000000)">
                <path d="M27.7551818,27.7749566 C27.6160909,27.7749566 27.4688182,27.7579129 27.3297273,27.7327958 C27.1915455,27.7067816 27.0524545,27.6637237 26.9224545,27.6125924 C26.7924545,27.5533878 26.6706364,27.4932861 26.5488182,27.4161407 C26.4279091,27.3309219 26.3242727,27.243909 26.2197273,27.1416465 C25.8206364,26.7478459 25.587,26.2006516 25.587,25.6355165 C25.587,25.4982694 25.6042727,25.3529489 25.6297273,25.2157018 C25.6560909,25.0793517 25.6997273,24.9430017 25.7515455,24.8138279 C25.8033636,24.6855512 25.8733636,24.5662449 25.9506364,24.4460416 C26.0288182,24.3258382 26.1242727,24.2146053 26.2197273,24.1213131 C26.3242727,24.0190506 26.4279091,23.9320377 26.5488182,23.8557893 C26.6706364,23.7786439 26.7924545,23.7104689 26.9224545,23.6593376 C27.0524545,23.6073093 27.1915455,23.5651484 27.3297273,23.5382372 C28.0415455,23.3929167 28.787,23.624353 29.2897273,24.1213131 C29.3851818,24.2146053 29.4806364,24.3258382 29.5588182,24.4460416 C29.637,24.5662449 29.7060909,24.6855512 29.7588182,24.8138279 C29.8106364,24.9430017 29.8542727,25.0793517 29.8797273,25.2157018 C29.9060909,25.3529489 29.9233636,25.4982694 29.9233636,25.6355165 C29.9233636,26.2006516 29.6888182,26.7478459 29.2897273,27.1416465 C28.8824545,27.5444174 28.3279091,27.7749566 27.7551818,27.7749566" id="Fill-1" fill="#00E2B7"></path>
                <g id="Group-5" transform="translate(18.181818, 28.562199)">
                    <mask id="mask-2" fill="white">
                        <use xlink:href="#path-1"></use>
                    </mask>
                    <g id="Clip-4"></g>
                    <path d="M0.578727273,2.86756744 C0.292363636,1.72115045 0.995090909,0.556792664 2.15690909,0.266151737 C3.31054545,-0.0164158301 4.49054545,0.67699601 4.78509091,1.823413 C5.08054545,2.96085959 4.37781818,4.12521737 3.21509091,4.41675534 C3.04145455,4.45891622 2.85963636,4.48582741 2.686,4.48582741 C1.71509091,4.48582741 0.830545455,3.83457645 0.578727273,2.86756744" id="Fill-3" fill="#00E2B7" mask="url(#mask-2)"></path>
                </g>
                <path d="M11.336,32.6456142 C10.1996364,32.2679604 9.59327273,31.0533683 9.97418182,29.9329655 C10.356,28.8107686 11.5878182,28.2115459 12.7241818,28.5891997 C13.8596364,28.9641624 14.4669091,30.1805485 14.0850909,31.3018484 C13.7732727,32.191712 12.9323636,32.7568471 12.0305455,32.7568471 C11.796,32.7568471 11.5623636,32.7218625 11.336,32.6456142" id="Fill-6" fill="#00E2B7"></path>
                <path d="M3.17463636,26.7141172 C2.47190909,25.764152 2.68918182,24.4203862 3.651,23.7278714 C4.62281818,23.0335625 5.97645455,23.2479551 6.68736364,24.1979203 C7.39009091,25.156856 7.17281818,26.4916514 6.20190909,27.1931366 C5.82009091,27.4667337 5.36918182,27.5950104 4.92645455,27.5950104 C4.25918182,27.5950104 3.59918182,27.2962961 3.17463636,26.7141172" id="Fill-8" fill="#00E2B7"></path>
                <g id="Group-12" transform="translate(0.000000, 15.019084)">
                    <mask id="mask-4" fill="white">
                        <use xlink:href="#path-3"></use>
                    </mask>
                    <g id="Clip-11"></g>
                    <path d="M-9.09090909e-05,2.2034538 L-9.09090909e-05,2.2034538 C-0.00918181818,1.02294929 0.954454545,0.0550432432 2.15081818,0.0379994852 C3.34809091,0.0299261261 4.32809091,0.979891377 4.33718182,2.16129292 C4.34536364,3.34269447 3.39172727,4.30880644 2.19445455,4.31687979 L2.16809091,4.31687979 C0.979909091,4.31687979 0.0171818182,3.37678198 -9.09090909e-05,2.2034538" id="Fill-10" fill="#00E2B7" mask="url(#mask-4)"></path>
                </g>
                <path d="M3.52127273,10.6497474 C2.54127273,9.97337928 2.29854545,8.63858391 2.984,7.6715749 C3.66945455,6.69649254 5.02218182,6.45608584 6.00218182,7.13245393 C6.99036364,7.80792497 7.22490909,9.14361737 6.54854545,10.1186997 C6.12309091,10.709849 5.44672727,11.0354745 4.76127273,11.0354745 C4.33672727,11.0354745 3.90309091,10.9063008 3.52127273,10.6497474" id="Fill-15" fill="#00E2B7"></path>
                <path d="M9.72290909,4.3257955 C9.31472727,3.21256898 9.89654545,1.98900656 11.0238182,1.58623565 C12.1510909,1.18346474 13.392,1.76564363 13.7992727,2.87887014 C14.2074545,3.99119961 13.6174545,5.21476203 12.4983636,5.60945959 C12.2556364,5.70275174 12.0038182,5.73683925 11.7610909,5.73683925 C10.8674545,5.73683925 10.0347273,5.19861532 9.72290909,4.3257955" id="Fill-17" fill="#00E2B7"></path>
                <g id="Group-21" transform="translate(18.181818, 0.753962)">
                    <mask id="mask-6" fill="white">
                        <use xlink:href="#path-5"></use>
                    </mask>
                    <g id="Clip-20"></g>
                    <path d="M2.05336364,4.39352201 L2.05336364,4.39352201 C0.873363636,4.19617323 0.0842727273,3.08384376 0.284272727,1.91948597 C0.483363636,0.756025225 1.60245455,-0.0235024453 2.79063636,0.173846332 C3.96972727,0.371195109 4.75972727,1.48352458 4.55972727,2.64788237 C4.37790909,3.68306641 3.467,4.41774208 2.42609091,4.41774208 C2.30518182,4.41774208 2.18336364,4.41056577 2.05336364,4.39352201" id="Fill-19" fill="#00E2B7" mask="url(#mask-6)"></path>
                </g>
                <path d="M27.7724545,10.0251385 C27.6333636,10.0251385 27.4860909,10.0080947 27.347,9.98208057 C27.2088182,9.95606641 27.0779091,9.91390553 26.9397273,9.8547009 C26.8097273,9.80267259 26.6879091,9.73449755 26.567,9.66542548 C26.4542727,9.58020669 26.3415455,9.49409086 26.237,9.39182831 C26.1424545,9.29763912 26.0460909,9.18640618 25.9679091,9.06620283 C25.8906364,8.95496988 25.8206364,8.82669318 25.7688182,8.69841647 C25.717,8.57103681 25.6733636,8.4337897 25.647,8.30461596 C25.6215455,8.1592955 25.6042727,8.02294543 25.6042727,7.88480129 C25.6042727,7.32056319 25.8379091,6.76439846 26.237,6.37059794 C26.3415455,6.26833539 26.4542727,6.1831166 26.567,6.10507413 C26.6879091,6.0279287 26.8097273,5.95975367 26.9397273,5.90862239 C27.0779091,5.84852072 27.2088182,5.8144332 27.347,5.78034569 C28.0497273,5.64220154 28.8042727,5.87453488 29.307,6.37059794 C29.7060909,6.76439846 29.9406364,7.32056319 29.9406364,7.88480129 C29.9406364,8.02294543 29.9233636,8.1592955 29.897,8.30461596 C29.8715455,8.4337897 29.8279091,8.57103681 29.7760909,8.69841647 C29.7233636,8.82669318 29.6542727,8.95496988 29.5760909,9.06620283 C29.4979091,9.18640618 29.4024545,9.29763912 29.307,9.39182831 C29.2033636,9.49409086 29.0988182,9.58020669 28.9779091,9.66542548 C28.8560909,9.73449755 28.7351818,9.80267259 28.6051818,9.8547009 C28.4751818,9.91390553 28.3360909,9.95606641 28.197,9.98208057 C28.0588182,10.0080947 27.9106364,10.0251385 27.7724545,10.0251385" id="Fill-22" fill="#00E2B7"></path>
                <path d="M22.5367273,15.0788819 C21.964,15.0788819 21.4094545,14.8483426 21.0021818,14.4545421 C20.8976364,14.3513825 20.8112727,14.2401495 20.7330909,14.1280196 C20.6549091,14.0096103 20.5858182,13.8804366 20.5330909,13.7521598 C20.4812727,13.6238831 20.4376364,13.4956064 20.4121818,13.3583593 C20.3776364,13.2130389 20.3685455,13.0766888 20.3685455,12.9394417 C20.3685455,12.7941212 20.3776364,12.6568741 20.4121818,12.519627 C20.4376364,12.3823799 20.4812727,12.2469269 20.5330909,12.1177532 C20.5858182,11.9894764 20.6549091,11.8692731 20.7330909,11.7499668 C20.8112727,11.6288664 20.8976364,11.5185305 21.0021818,11.4252384 C21.8085455,10.6286669 23.2567273,10.6286669 24.0630909,11.4252384 C24.1676364,11.5185305 24.254,11.6288664 24.3412727,11.7499668 C24.4185455,11.8692731 24.4794545,11.9894764 24.5403636,12.1177532 C24.5921818,12.2469269 24.6358182,12.3823799 24.6612727,12.519627 C24.6876364,12.6568741 24.7049091,12.7941212 24.7049091,12.9394417 C24.7049091,13.0766888 24.6876364,13.2130389 24.6612727,13.3583593 C24.6358182,13.4956064 24.5921818,13.6238831 24.5403636,13.7521598 C24.4794545,13.8804366 24.4185455,14.0096103 24.3412727,14.1280196 C24.254,14.2401495 24.1676364,14.3513825 24.0630909,14.4545421 C23.664,14.8483426 23.1003636,15.0788819 22.5367273,15.0788819" id="Fill-24" fill="#00B794"></path>
                <path d="M15.9849091,27.1758237 L15.9849091,27.1758237 C14.7967273,27.0986782 13.8858182,26.080538 13.964,24.9090039 C14.0421818,23.7276023 15.0749091,22.8278713 16.2712727,22.9059138 C17.4685455,22.9830592 18.3703636,24.0011995 18.2921818,25.181704 C18.214,26.3119743 17.2603636,27.1856911 16.1330909,27.1856911 C16.0803636,27.1856911 16.0367273,27.1856911 15.9849091,27.1758237" id="Fill-26" fill="#00B794"></path>
                <path d="M7.56290909,21.7760023 C7.00836364,20.7228775 7.40745455,19.43114 8.47381818,18.8830486 C9.532,18.3349573 10.842,18.7377282 11.3965455,19.7818826 C11.9601818,20.82514 11.5529091,22.1177745 10.4856364,22.6748363 C10.1647273,22.8380976 9.81836364,22.9143459 9.47927273,22.9143459 C8.69927273,22.9143459 7.95381818,22.5035017 7.56290909,21.7760023" id="Fill-28" fill="#00B794"></path>
                <path d="M8.58654545,14.792457 C7.56290909,14.184264 7.22472727,12.8674094 7.84109091,11.8573425 C8.45654545,10.8383051 9.792,10.5126797 10.8156364,11.1199757 C11.8483636,11.7281687 12.1774545,13.037847 11.562,14.0559873 C11.1538182,14.7233849 10.4429091,15.0911713 9.70563636,15.0911713 C9.32381818,15.0911713 8.94290909,14.9978792 8.58654545,14.792457" id="Fill-30" fill="#00B794"></path>
                <text id="Commit.to" font-family="AvenirNext-DemiBold, Avenir Next" font-size="12" font-weight="500" fill="#FFFFFF">
                    <tspan x="43" y="21.7749566">Commit.to</tspan>
                </text>
                <path d="M14.4152727,9.083426 C14.4061818,7.90292149 15.3689091,6.93501544 16.5661818,6.91797169 L16.5661818,6.92694208 C17.7634545,6.91797169 18.7434545,7.86076062 18.7525455,9.04126512 C18.7607273,10.2226667 17.798,11.1896757 16.6007273,11.196852 L16.5925455,11.196852 L16.5834545,11.196852 C15.3952727,11.196852 14.4234545,10.2567542 14.4152727,9.083426" id="Fill-32" fill="#00B794"></path>
                <path d="M22.5367273,23.8495997 C22.3976364,23.8495997 22.2503636,23.8316589 22.1112727,23.8056448 C21.9730909,23.7805277 21.8349091,23.7383668 21.704,23.6863385 C21.574,23.6262368 21.4530909,23.5670322 21.3312727,23.4898867 C21.2185455,23.4127413 21.1058182,23.3185521 21.0021818,23.2243629 C20.9067273,23.1212033 20.8112727,23.0099704 20.7330909,22.8987375 C20.6549091,22.7794311 20.5858182,22.6592278 20.5330909,22.5309511 C20.4812727,22.4026744 20.4376364,22.2654273 20.4121818,22.1281802 C20.3858182,21.9927272 20.3685455,21.8474067 20.3685455,21.7092625 C20.3685455,21.1441274 20.6030909,20.5879627 21.0021818,20.1941622 C21.1058182,20.10087 21.2185455,20.0066808 21.3312727,19.9295354 C21.4530909,19.85239 21.574,19.7842149 21.704,19.7321866 C21.8349091,19.6819524 21.9730909,19.6388945 22.1112727,19.6119833 C22.3894545,19.5527786 22.684,19.5527786 22.9621818,19.6119833 C23.1003636,19.6388945 23.2394545,19.6819524 23.3694545,19.7321866 C23.4994545,19.7842149 23.6212727,19.85239 23.7430909,19.9295354 C23.8549091,20.0066808 23.9676364,20.10087 24.0721818,20.1941622 C24.4712727,20.5879627 24.7049091,21.1441274 24.7049091,21.7092625 C24.7049091,21.8474067 24.6876364,21.9927272 24.6621818,22.1281802 C24.6358182,22.2654273 24.5921818,22.394601 24.5403636,22.5309511 C24.4885455,22.6592278 24.4185455,22.7794311 24.3412727,22.8987375 C24.2630909,23.0099704 24.1676364,23.1212033 24.0721818,23.2243629 C23.664,23.6172664 23.1094545,23.8495997 22.5367273,23.8495997" id="Fill-34" fill="#00B794"></path>
            </g>
        </g>
    </g>
</svg>