<?xml version="1.0" encoding="UTF-8"?>
<svg width="22px" height="22px" viewBox="0 0 22 22" version="1.1" xmlns="http://www.w3.org/2000/svg" xmlns:xlink="http://www.w3.org/1999/xlink">
    <!-- Generator: Sketch 46.2 (44496) - http://www.bohemiancoding.com/sketch -->
    <title>recents</title>
    <desc>Created with Sketch.</desc>
    <defs></defs>
    <g id="Desktop" stroke="none" stroke-width="1" fill="none" fill-rule="evenodd">
        <g id="Edit-commitment" transform="translate(-757.000000, -201.000000)" fill="#929292">
            <path d="M768,201 C761.924966,201 757,205.924966 757,212 C757,218.075474 761.924966,223 768,223 C774.075474,223 779,218.075474 779,212 C779.00044,205.924966 774.075474,201 768,201 L768,201 L768,201 Z M768,222.132389 C762.404088,222.132389 757.868051,217.595472 757.868051,212 C757.868051,206.404528 762.404528,201.868051 768,201.868051 C773.596352,201.868051 778.132389,206.404528 778.132389,212 C778.132389,217.595472 773.596352,222.132389 768,222.132389 L768,222.132389 Z M762.279578,213.099032 L762.279578,212.219102 L767.559155,212.219102 L767.559155,204.080634 L768.439085,204.080634 L768.439085,213.099032 L762.279578,213.099032 L762.279578,213.099032 Z" id="recents"></path>
        </g>
    </g>
</svg>