<?xml version="1.0" encoding="UTF-8"?>
<svg width="19px" height="14px" viewBox="0 0 19 14" version="1.1" xmlns="http://www.w3.org/2000/svg" xmlns:xlink="http://www.w3.org/1999/xlink">
    <!-- Generator: Sketch 46.2 (44496) - http://www.bohemiancoding.com/sketch -->
    <title>Shape</title>
    <desc>Created with Sketch.</desc>
    <defs></defs>
    <g id="Desktop" stroke="none" stroke-width="1" fill="none" fill-rule="evenodd">
        <g id="Edit-commitment" transform="translate(-504.000000, -322.000000)" fill="#929292">
            <path d="M505,332 C504.45,332 504,332.45 504,333 L504,335 C504,335.55 504.45,336 505,336 L508,336 C508.55,336 509,335.55 509,335 L509,333 C509,332.45 508.55,332 508,332 L505,332 Z M522,322 L519,322 C518.45,322 518,322.45 518,323 L518,335 C518,335.55 518.45,336 519,336 L522,336 C522.55,336 523,335.55 523,335 L523,323 C523,322.45 522.55,322 522,322 L522,322 Z M512,328 C511.45,328 511,328.45 511,329 L511,335 C511,335.55 511.45,336 512,336 L515,336 C515.55,336 516,335.55 516,335 L516,329 C516,328.45 515.55,328 515,328 L512,328 Z" id="Shape"></path>
        </g>
    </g>
</svg>