<?xml version="1.0" encoding="UTF-8"?>
<svg width="16px" height="14px" viewBox="0 0 16 14" version="1.1" xmlns="http://www.w3.org/2000/svg" xmlns:xlink="http://www.w3.org/1999/xlink">
    <!-- Generator: Sketch 46.2 (44496) - http://www.bohemiancoding.com/sketch -->
    <title>Tt</title>
    <desc>Created with Sketch.</desc>
    <defs></defs>
    <g id="Desktop" stroke="none" stroke-width="1" fill="none" fill-rule="evenodd">
        <g id="Edit-commitment" transform="translate(-505.000000, -153.000000)" fill="#929292">
            <g id="Commitment-01" transform="translate(468.000000, 128.000000)">
                <path d="M42.93,38 L41.148,38 L41.148,26.822 L37.062,26.822 L37.062,25.256 L47.016,25.256 L47.016,26.822 L42.93,26.822 L42.93,38 Z M52.794,30.854 L50.526,30.854 L50.526,35.3 C50.526,35.8160026 50.621999,36.1849989 50.814,36.407 C51.006001,36.6290011 51.3119979,36.74 51.732,36.74 C51.8880008,36.74 52.0559991,36.7220002 52.236,36.686 C52.4160009,36.6499998 52.5779993,36.5960004 52.722,36.524 L52.776,37.91 C52.571999,37.9820004 52.3470012,38.0389998 52.101,38.081 C51.8549988,38.1230002 51.6000013,38.144 51.336,38.144 C50.531996,38.144 49.9170021,37.9220022 49.491,37.478 C49.0649979,37.0339978 48.852,36.3680044 48.852,35.48 L48.852,30.854 L47.214,30.854 L47.214,29.468 L48.852,29.468 L48.852,27.02 L50.526,27.02 L50.526,29.468 L52.794,29.468 L52.794,30.854 Z" id="Tt"></path>
            </g>
        </g>
    </g>
</svg>